<?xml version="1.0" encoding="utf-8"?>
<!-- Svg Vector Icons : http://www.onlinewebfonts.com/icon -->
<!DOCTYPE svg PUBLIC "-//W3C//DTD SVG 1.1//EN" "http://www.w3.org/Graphics/SVG/1.1/DTD/svg11.dtd">
<svg version="1.1" xmlns="http://www.w3.org/2000/svg" xmlns:xlink="http://www.w3.org/1999/xlink" x="0px" y="0px" viewBox="0 0 1000 1000" enable-background="new 0 0 1000 1000" xml:space="preserve">
<metadata> Svg Vector Icons : http://www.onlinewebfonts.com/icon </metadata>
<g><path d="M500,10C229.4,10,10,229.5,10,499.9C10,770.5,229.4,990,500,990c270.5,0,490-219.5,490-490.1C990,229.5,770.5,10,500,10z M500,941C256.4,941,59,743.5,59,499.9C59,256.5,256.4,59,500,59c243.6,0,441,197.4,441,440.9C941,743.5,743.5,941,500,941z"/><path d="M426.9,232.9L217.6,767.8h52.3l64-168.6h241.3l63.9,168.6h52.3L485,232.9H426.9z M348.4,555.6L456,276.5l104.6,279.1H348.4z"/><path d="M723.1,343.9V230h-30.5v113.9h-116v32.6h116v113.9h30.5V376.5H837v-32.6H723.1z"/></g>
</svg>