<?xml version="1.0" encoding="utf-8"?>
<!-- Svg Vector Icons : http://www.onlinewebfonts.com/icon -->
<!DOCTYPE svg PUBLIC "-//W3C//DTD SVG 1.1//EN" "http://www.w3.org/Graphics/SVG/1.1/DTD/svg11.dtd">
<svg version="1.1" xmlns="http://www.w3.org/2000/svg" xmlns:xlink="http://www.w3.org/1999/xlink" x="0px" y="0px" viewBox="0 0 1000 1000" enable-background="new 0 0 1000 1000" xml:space="preserve">
<metadata> Svg Vector Icons : http://www.onlinewebfonts.com/icon </metadata>
<g><g transform="translate(0.000000,511.000000) scale(0.100000,-0.100000)"><path d="M4371.5,4979.5c-1913.1-251.4-3506.7-1600-4064.9-3440.7C159.6,1055.2,100,641.9,100,111.5c0-1295.3,477.2-2479.8,1372-3404.4c417.6-430.4,826.6-728.6,1365.6-994.9c683.9-338.8,1380.5-500.7,2162.4-500.7c1084.4,0,2085.7,332.3,2961.3,986.4c259.9,193.9,758.4,692.4,952.3,952.3c654,875.6,986.4,1876.9,986.4,2961.3c0,1293.2-479.3,2479.8-1372,3404.4c-790.4,816-1806.6,1325.1-2931.5,1465.7C5298.3,5017.9,4663.4,5017.9,4371.5,4979.5z M7624.7,1519.7c157.6-108.7,223.7-302.5,166.2-483.6c-21.3-68.2-328.1-385.6-1617-1676.7c-888.4-890.5-1623.4-1612.7-1668.1-1636.2c-102.3-53.3-255.6-53.3-366.4,2.1c-57.5,27.7-406.9,362.2-1016.2,973.6C2117.5-293.3,2130.3-308.2,2149.5-99.5c27.7,283.4,349.4,453.8,605,319.6c46.9-23.4,415.4-375,828.7-788.3l745.6-747.8L5756.3,111.5c784,784,1450.8,1435.9,1480.6,1448.7C7330.7,1598.5,7541.6,1575.1,7624.7,1519.7z"/></g></g>
</svg>