<?xml version="1.0" encoding="utf-8"?>
<!-- Svg Vector Icons : http://www.onlinewebfonts.com/icon -->
<!DOCTYPE svg PUBLIC "-//W3C//DTD SVG 1.1//EN" "http://www.w3.org/Graphics/SVG/1.1/DTD/svg11.dtd">
<svg version="1.1" xmlns="http://www.w3.org/2000/svg" xmlns:xlink="http://www.w3.org/1999/xlink" x="0px" y="0px" viewBox="0 0 1000 1000" enable-background="new 0 0 1000 1000" xml:space="preserve">
<metadata> Svg Vector Icons : http://www.onlinewebfonts.com/icon </metadata>
<g><g transform="translate(0.000000,511.000000) scale(0.100000,-0.100000)"><path d="M1443.1,4993.4c-132.1-42.6-236.5-119.3-406.9-294c-409.1-419.7-677.5-905.5-830.9-1504.2c-140.6-551.8-140.6-1316.7,2.1-2002.7c443.2-2160.4,2203-4312.3,4376.2-5352c824.5-396.3,1559.6-590.2,2356.4-622.1c848-34.1,1559.6,149.1,2186,562.5c104.4,70.3,223.7,147,264.2,172.6c110.8,66.1,392,362.2,447.4,473c68.2,132.1,83.1,379.2,32,534.8c-34.1,106.5-95.9,172.6-871.4,952.4c-585.9,588.1-860.7,850.1-928.9,884.2c-78.8,38.4-132.1,46.9-298.3,46.9c-183.2,0-213.1-6.4-313.2-61.8c-147-81-432.5-377.1-507.1-524.1c-44.7-85.2-61.8-159.8-70.3-270.6l-10.7-155.5l-76.7-21.3c-291.9-81-786.2-83.1-1056.8-2.1c-200.3,59.6-436.8,174.7-594.4,287.6c-157.7,115-2090.1,2051.7-2179.6,2186c-317.5,475.1-417.6,1048.3-277,1587.3c23.4,89.5,36.2,106.5,74.6,100.1c81-10.6,308.9,40.5,417.6,95.9c57.5,29.8,185.4,134.2,283.4,232.2c230.1,227.9,291.9,355.8,291.9,583.8c0,279.1,4.3,270.6-909.8,1188.9c-909.8,914-922.5,922.6-1186.7,933.2C1568.8,5008.3,1472.9,5004.1,1443.1,4993.4z"/></g></g>
</svg>