<?xml version="1.0" encoding="utf-8"?>
<!-- Svg Vector Icons : http://www.onlinewebfonts.com/icon -->
<!DOCTYPE svg PUBLIC "-//W3C//DTD SVG 1.1//EN" "http://www.w3.org/Graphics/SVG/1.1/DTD/svg11.dtd">
<svg version="1.1" xmlns="http://www.w3.org/2000/svg" xmlns:xlink="http://www.w3.org/1999/xlink" x="0px" y="0px" viewBox="0 0 1000 1000" enable-background="new 0 0 1000 1000" xml:space="preserve">
<metadata> Svg Vector Icons : http://www.onlinewebfonts.com/icon </metadata>
<g><g transform="translate(0.000000,511.000000) scale(0.100000,-0.100000)"><path d="M494.3,3476c-98-25.6-185.3-76.7-259.9-155.5c-144.9-149.1-134.2,81-134.2-3212.6c0-3293.5-10.6-3063.5,134.2-3212.6c38.4-40.5,106.5-91.6,153.4-117.2l85.2-46.9h4527h4527l85.2,46.9c46.9,25.6,115,76.7,153.4,117.2c144.9,149.1,134.2-81,134.2,3212.6c0,3293.5,10.7,3063.5-134.2,3212.6c-38.3,40.5-106.5,91.6-153.4,117.2l-85.2,46.9l-4484.4,4.3C2575.7,3488.8,530.5,3484.5,494.3,3476z M3095.5,1407.4C4164.9,740.6,5049,193.1,5061.8,193.1c12.8,0,873.4,543.2,1913.1,1207.9c1450.8,926.7,1910.9,1210,1970.6,1216.4c66,6.4,91.6-2.1,144.9-55.4c87.3-87.3,89.5-206.7,6.4-285.5c-34.1-29.8-941.6-617.8-2019.6-1303.8C5430.3-79.6,5106.5-277.7,5053.3-271.3c-66,8.5-3994.4,2445.6-4105.2,2547.9c-125.7,115-36.2,345.1,134.2,345.1C1137.7,2621.7,1555.2,2370.3,3095.5,1407.4z"/></g></g>
</svg>